<?xml version="1.0" encoding="utf-8"?>
<!-- Generator: Adobe Illustrator 24.0.0, SVG Export Plug-In . SVG Version: 6.00 Build 0)  -->
<svg version="1.1" id="Capa_1" xmlns="http://www.w3.org/2000/svg" xmlns:xlink="http://www.w3.org/1999/xlink" x="0px" y="0px"
	 viewBox="0 0 130 44" style="enable-background:new 0 0 130 44;" xml:space="preserve">
<style type="text/css">
	.st0{fill-rule:evenodd;clip-rule:evenodd;fill:#FFFFFF;}
</style>
<g>
	<g>
		<g>
			<path class="st0" d="M102,41.4c-0.5,0.8-1.1,1.4-1.9,1.7c-0.7,0.3-1.4,0.5-2.2,0.5c-0.9,0-1.7-0.3-2.2-1
				c-0.5-0.7-0.8-1.6-0.8-2.7V13.8L75,41.4c-0.5,0.8-1.1,1.4-1.8,1.7c-0.7,0.3-1.4,0.5-2.2,0.5c-0.9,0-1.7-0.3-2.2-1
				c-0.5-0.7-0.8-1.6-0.8-2.7V0.4H75v29L92.5,3c0.7-1,1.4-1.7,2.2-2c0.8-0.4,1.5-0.5,2.4-0.5c1.3,0,2.5,0.5,3.5,1.4
				c1,0.9,1.5,2.1,1.5,3.5v24.1l18.9-29h9.1L102,41.4z"/>
		</g>
		<g>
			<path class="st0" d="M28.1,43.6v-7h-6.4c-2.2,0-4.1-0.3-5.9-1.1c-1.8-0.7-3.3-1.7-4.6-3c-1.3-1.3-2.3-2.8-3-4.6
				c-0.7-1.8-1.1-3.7-1.1-5.8c0-2.1,0.4-4.1,1.1-5.9c0.7-1.8,1.7-3.4,3-4.7c1.3-1.3,2.8-2.3,4.6-3.1c1.8-0.7,3.7-1.1,5.8-1.1h6.4v-7
				h-6.4c-3.3,0-6.3,0.5-9,1.6C9.9,3,7.7,4.4,5.8,6.3C3.9,8.2,2.5,10.4,1.5,13c-1,2.6-1.5,5.4-1.5,8.6c0,3.1,0.5,6.1,1.5,8.7
				c1,2.7,2.4,5,4.3,7c1.9,2,4.2,3.5,6.9,4.7c2.7,1.1,5.7,1.7,9,1.7H28.1z"/>
		</g>
		<g>
			<g>
				<path class="st0" d="M46.9,31.1c2.5,0,4.7-0.4,6.6-1.2c2-0.8,3.7-1.8,5-3.2c1.4-1.4,2.4-3,3.2-4.9c0.7-1.9,1.1-3.9,1.1-6.1
					c0-2.2-0.4-4.2-1.1-6.1c-0.7-1.9-1.7-3.5-3.1-4.9c-1.4-1.4-3-2.5-5-3.2c-1.9-0.8-4.1-1.2-6.6-1.2H33v43.2h7.1V31.1H46.9z
					 M40.1,24.1V7.4h6.7c1.3,0,2.6,0.2,3.7,0.6c1.1,0.4,2,1,2.8,1.8c0.7,0.7,1.4,1.6,1.8,2.7c0.4,1,0.6,2.1,0.6,3.3
					c0,1.2-0.2,2.3-0.6,3.3c-0.4,1-1,1.9-1.8,2.7c-0.8,0.7-1.7,1.3-2.8,1.7c-1.1,0.4-2.3,0.6-3.7,0.6H40.1z"/>
			</g>
		</g>
	</g>
</g>
</svg>
