<?xml version="1.0" encoding="utf-8"?>
<!-- Generator: Adobe Illustrator 24.0.0, SVG Export Plug-In . SVG Version: 6.00 Build 0)  -->
<svg version="1.1" id="Capa_1" xmlns="http://www.w3.org/2000/svg" xmlns:xlink="http://www.w3.org/1999/xlink" x="0px" y="0px"
	 viewBox="0 0 180 106" style="enable-background:new 0 0 180 106;" xml:space="preserve">
<style type="text/css">
	.st0{filter:url(#Adobe_OpacityMaskFilter);}
	.st1{filter:url(#Adobe_OpacityMaskFilter_1_);}
	.st2{mask:url(#SVGID_1_);fill:url(#SVGID_2_);}
	.st3{fill:url(#SVGID_3_);}
	.st4{fill:#FF4B6D;}
	.st5{fill:none;stroke:#FF4B6D;stroke-width:5;stroke-miterlimit:10;}
	.st6{clip-path:url(#SVGID_5_);}
	.st7{fill:none;stroke:#FF4B6D;stroke-width:0.5;stroke-linejoin:round;stroke-miterlimit:10;}
	.st8{fill:none;stroke:#FF4B6D;stroke-width:0.5;stroke-linecap:round;stroke-linejoin:round;stroke-miterlimit:10;}
</style>
<g>
	<g>
		<defs>
			<filter id="Adobe_OpacityMaskFilter" filterUnits="userSpaceOnUse" x="129.8" y="92.2" width="0.7" height="0.9">
				<feFlood  style="flood-color:white;flood-opacity:1" result="back"/>
				<feBlend  in="SourceGraphic" in2="back" mode="normal"/>
			</filter>
		</defs>
		<mask maskUnits="userSpaceOnUse" x="129.8" y="92.2" width="0.7" height="0.9" id="SVGID_1_">
			<g class="st0">
				<defs>
					<filter id="Adobe_OpacityMaskFilter_1_" filterUnits="userSpaceOnUse" x="129.8" y="92.2" width="0.7" height="0.9">
						<feFlood  style="flood-color:white;flood-opacity:1" result="back"/>
						<feBlend  in="SourceGraphic" in2="back" mode="normal"/>
					</filter>
				</defs>
				<mask maskUnits="userSpaceOnUse" x="129.8" y="92.2" width="0.7" height="0.9" id="SVGID_1_">
					<g class="st1">
					</g>
				</mask>
				
					<radialGradient id="SVGID_2_" cx="-3453.6487" cy="92.5173" r="0.611" gradientTransform="matrix(1 0 0 1 3583.7295 0)" gradientUnits="userSpaceOnUse">
					<stop  offset="0.2489" style="stop-color:#FFFFFF"/>
					<stop  offset="0.351" style="stop-color:#D1D1D1"/>
					<stop  offset="0.5289" style="stop-color:#888888"/>
					<stop  offset="0.6885" style="stop-color:#4E4E4E"/>
					<stop  offset="0.8238" style="stop-color:#232323"/>
					<stop  offset="0.9296" style="stop-color:#0A0A0A"/>
					<stop  offset="0.9928" style="stop-color:#000000"/>
				</radialGradient>
				<path class="st2" d="M130.5,92.6c0,0.2-0.1,0.4-0.3,0.4c-0.2,0-0.3-0.2-0.3-0.4c0-0.2,0.1-0.4,0.3-0.4
					C130.3,92.2,130.5,92.4,130.5,92.6z"/>
			</g>
		</mask>
		
			<radialGradient id="SVGID_3_" cx="-3453.6487" cy="92.5173" r="0.611" gradientTransform="matrix(1 0 0 1 3583.7295 0)" gradientUnits="userSpaceOnUse">
			<stop  offset="0.2489" style="stop-color:#FDE158"/>
			<stop  offset="0.3588" style="stop-color:#FDE778"/>
			<stop  offset="0.5754" style="stop-color:#FEF1B2"/>
			<stop  offset="0.761" style="stop-color:#FFF9DC"/>
			<stop  offset="0.906" style="stop-color:#FFFDF5"/>
			<stop  offset="0.9928" style="stop-color:#FFFFFF"/>
		</radialGradient>
		<path class="st3" d="M130.5,92.6c0,0.2-0.1,0.4-0.3,0.4c-0.2,0-0.3-0.2-0.3-0.4c0-0.2,0.1-0.4,0.3-0.4
			C130.3,92.2,130.5,92.4,130.5,92.6z"/>
		<path class="st4" d="M80.4,88.4C34.7,79.6,7.7,68.5,4.8,59.5c-3.3,9.4,24.4,22.2,75.5,32c51.2,9.8,90.2,2.8,91-6.8
			c0.1-0.9,0-1.7-0.1-2.6C168.9,91.4,130.5,98,80.4,88.4z"/>
		<g>
			<g>
				<path class="st4" d="M41,59.7c0,0.5-0.4,0.9-0.9,0.9c-0.5,0-0.9-0.4-0.9-0.9s0.4-0.9,0.9-0.9C40.6,58.8,41,59.2,41,59.7z"/>
				<path class="st4" d="M49.5,54.8c0,0.5-0.4,0.9-0.9,0.9c-0.5,0-0.9-0.4-0.9-0.9c0-0.5,0.4-0.9,0.9-0.9
					C49,53.9,49.5,54.3,49.5,54.8z"/>
				<path class="st4" d="M118.5,70.6c0,0.5-0.4,0.9-0.9,0.9c-0.5,0-0.9-0.4-0.9-0.9c0-0.5,0.4-0.9,0.9-0.9
					C118.1,69.7,118.5,70.1,118.5,70.6z"/>
				<path class="st4" d="M123.1,77.4c0,0.5-0.4,0.9-0.9,0.9c-0.5,0-0.9-0.4-0.9-0.9c0-0.5,0.4-0.9,0.9-0.9
					C122.7,76.4,123.1,76.8,123.1,77.4z"/>
				<path class="st4" d="M128.3,85.8c0,0.5-0.4,0.9-0.9,0.9s-0.9-0.4-0.9-0.9c0-0.5,0.4-0.9,0.9-0.9S128.3,85.3,128.3,85.8z"/>
				<path class="st4" d="M32.8,66c0,0.5-0.4,0.9-0.9,0.9s-0.9-0.4-0.9-0.9c0-0.5,0.4-0.9,0.9-0.9S32.8,65.5,32.8,66z"/>
			</g>
			<path class="st4" d="M22.3,72.1c0,0,0-0.3,0-0.3c0.1-0.5,0.2-0.9,0.5-1.4c1.3-2.5,3.7-4.5,5.8-6.2c6.4-5.2,13.7-9.2,20.9-13
				c0.2-0.1,0.4-0.8,0-0.6c-6.7,3.5-13.3,7.2-19.4,11.7c-2.7,2-5.4,4.2-7.3,7c-0.5,0.8-1.4,2.2-1.1,3.2C22,72.9,22.4,72.4,22.3,72.1
				L22.3,72.1z"/>
			<path class="st4" d="M111.4,67.9c2.2,2.5,4.3,5.1,6.4,7.7c3.4,4.4,6.9,9.1,8.9,14.3c0.4,1.1,0.8,2.3,0.8,3.5c0,0.4,0.5,0,0.5-0.3
				c0-2.1-0.9-4.1-1.9-6c-1.2-2.5-2.8-5-4.4-7.3c-2.7-4-5.8-7.8-8.9-11.5c-0.3-0.4-0.6-0.7-0.9-1.1
				C111.7,67.1,111.3,67.7,111.4,67.9L111.4,67.9z"/>
		</g>
		<path class="st4" d="M156.6,91.3c-5.7,2-23.1,3-27.2,3.2c-0.7,1.3-1,2.6-0.9,4c0.6,5,7.8,8.3,16,7.2c8.2-1,14.3-6,13.7-11
			C158.1,93.5,157.5,92.3,156.6,91.3z"/>
		<path class="st4" d="M73.1,87.6c-1.9,1.4-3.1,3.2-3.2,5.2c-0.3,5.1,6.1,9.6,14.3,10.2c8.2,0.5,15.2-3.1,15.5-8.2
			c0-0.5,0-1-0.1-1.5C94.5,92.9,80.5,89.6,73.1,87.6z"/>
		<path class="st4" d="M18.6,72.1c-1.5,1-2.5,2.3-2.9,3.9C14.5,80.9,20,86.6,28,88.6c8,2,15.5-0.3,16.8-5.3c0.1-0.5,0.2-1.1,0.2-1.6
			C40.1,80.7,25.9,75.5,18.6,72.1z"/>
		<path class="st5" d="M142,60c-12.7,17.1-92.4,2.8-99.9-17.5c-13.6,1.8-32.9,6.2-37.3,17c0,0,0,0,0,0c2.9,9,29.9,20.1,75.5,28.8
			c50.2,9.6,88.5,3,90.9-6.2C169.7,72.5,155.3,65.4,142,60z"/>
		<path class="st5" d="M143.6,56.5c-4.4,24-106.3,5.4-101.9-18.6c4.4-24,30.7-39.3,58.9-34.1C128.7,8.9,148,32.5,143.6,56.5z"/>
	</g>
	<g>
		<defs>
			<path id="SVGID_4_" d="M143.6,55.8c-4.4,24-106.3,5.4-101.9-18.6C46,13.2,72.4-2.1,100.5,3C128.7,8.2,148,31.8,143.6,55.8z"/>
		</defs>
		<clipPath id="SVGID_5_">
			<use xlink:href="#SVGID_4_"  style="overflow:visible;"/>
		</clipPath>
		<g class="st6">
			<path class="st7" d="M100.5,33.6c-2.3,1.9-2.5,1.3-2.7,1.4c0.7-0.6,2.8-2.5,2.2-3.1c-0.2-0.3-1,0.6-1.4,1
				c-0.2,0.2-1.2,1.2-1.6,1.5c0.2-0.3,1.3-1.7,1.5-2c0.2-0.4,0.6-1.4,0.1-1.7c-0.4-0.2-0.8,0.8-1,1.1c-0.7,1.3-1.4,1.8-1.7,2.1
				c0.4-0.6,1.2-2.4,1.3-3.2c0-0.3,0.1-0.7-0.2-0.8c-0.6-0.3-1,1.1-1.1,1.4c-0.2,0.7-0.5,1.2-0.9,1.8c-0.7,1-0.9,0.4-0.8-0.3
				c0-0.5,0.1-0.9-0.3-1.3c-0.2-0.2-0.4-0.1-0.6,0c-0.2,0.1-0.2,0.4-0.2,0.6c0,0.2,0,0.5-0.1,0.7c-0.1,0.4-0.1,0.8-0.1,1.2
				c0,0.3,0,0.6,0,0.9c0.1,0.5,0.2,1,0.5,1.4c-0.1,0.1-0.2,0.2-0.3,0.3c-0.1,0.1-5.3,7.1-13.8,8.3c-0.1-0.6-0.2-1.1-0.2-1.7
				c0-0.2,0-0.4,0-0.6c3.2-0.8,6.4-2.9,7.6-7.6c1.7-6.5-1.5-11.1-1.5-11.1c-0.3-0.4-0.6-0.7-1-1c0.5-0.7,1.2-1.5,1.5-2
				c0.1,0,0.2,0.1,0.3,0.1c0.8,0.1,1.6-0.6,1.6-1.4c0.1-0.8-0.6-1.6-1.4-1.6c-0.8-0.1-1.6,0.6-1.6,1.4c0,0.3,0,0.6,0.2,0.8L83.3,22
				c-3.3-1.8-8.7-2.1-12.1-0.8l-1.4-2.5c0.2-0.2,0.3-0.5,0.3-0.8c0.1-0.8-0.6-1.6-1.4-1.6c-0.8-0.1-1.6,0.6-1.6,1.4
				c-0.1,0.8,0.6,1.6,1.4,1.6c0.1,0,0.2,0,0.3,0c0.3,0.6,0.9,1.6,1.3,2.4c-0.3,0.2-0.6,0.4-0.8,0.7c0,0-3.8,4-3.1,10.7
				c0.5,4.9,3.5,7.5,6.6,8.7c0,0.4-0.1,0.9-0.1,1.3c-7.3-2.5-11.1-9.4-11.9-11c0.3-0.2,0.6-0.5,0.9-0.8c0.2-0.2,0.3-0.5,0.5-0.8
				c0.2-0.4,0.3-0.8,0.5-1.1c0.1-0.2,0.2-0.4,0.3-0.6c0.1-0.2,0.2-0.4,0.1-0.6c-0.1-0.2-0.3-0.4-0.5-0.3c-0.5,0.2-0.7,0.6-0.9,1
				c-0.3,0.7-0.7,1.1-0.9-0.1c-0.1-0.7,0-1.3,0.1-2c0-0.3,0.4-1.7-0.3-1.7c-0.3,0-0.5,0.4-0.6,0.6c-0.3,0.8-0.5,2.7-0.4,3.4
				c0-0.4-0.5-1.2-0.4-2.7c0-0.3,0.2-1.4-0.3-1.4c-0.6,0-0.7,1.1-0.7,1.5c0,0.3,0.3,2.1,0.3,2.5c-0.2-0.4-0.7-1.8-0.7-2.1
				c-0.1-0.5-0.4-1.6-0.7-1.5c-0.8,0.3,0.1,2.9,0.4,3.8c-0.1-0.1-0.6,0.3-1.7-2.5c-0.3-0.7-1.1-1-0.9,0.5c0.2,0.9,0.5,1.9,1,2.8
				c0.5,1,1.2,2.2,2.4,2.5c0.1,0,0.2,0.1,0.4,0.1c0,0,0,0.1,0,0.1c0.2,0.4,4.2,9.6,13.5,12.7c-1.9,4.4-5.5,8-6.4,12.7
				c-0.6,3,0.6,5.8,3.1,7.5C68.3,69.1,68,74,68.2,79c-0.3,0-0.6-0.1-0.6-0.1c-0.2,0-0.5,0.2-0.5,0.4c0,0.2,0.1,0.3,0.2,0.4
				c0.1,0.8,0.2,2.6,0.3,3.1c-0.1,0.1-0.4,0.2-0.6,0.3c-0.3,0.1-0.6,0.3-0.8,0.4c-0.3,0.2-0.3,0.6-0.3,1c0,0.1,0,0.2,0,0.2
				c0,0.1,0,0.1,0,0.2c0,0.1,0,0.1,0.1,0.1c1,0.2,2,0.3,2.8,0.2c0.3,0,0.6-0.1,0.9-0.1c0.9-0.1,1.3-0.4,1.6-0.5
				c0.1,0,0.1-0.1,0.1-0.1c0,0,0.1-0.1,0.1-0.1c0-0.1,0-0.2,0-0.3c0,0,0-0.1,0-0.1l0-0.2c0,0,0,0,0,0c0-0.2,0-0.3,0-0.4
				c0-0.2-0.1-0.3-0.1-0.4c0,0,0-0.1,0.1-0.1c0-0.1,0.1-0.1,0-0.2c0-0.1-0.1-0.2-0.2-0.2c0-0.3,0.1-1.6,0.2-2.7
				c0.2-0.1,0.3-0.3,0.3-0.5c0-0.1-0.1-0.2-0.2-0.3c-0.1-0.1-0.2-0.1-0.3-0.1c-0.3,0-0.6,0.1-0.9,0.1c-0.3-4.4,0-8.9,0.3-12.2
				c2,0.6,4.2,0.7,6.1,0.4c1.4-0.2,2.8-0.8,3.9-1.6c1.3,3,2.9,7,4,11.1c-0.3,0.1-0.6,0.1-0.9,0.2c-0.1,0-0.2,0.1-0.3,0.2
				c-0.1,0.1-0.1,0.2-0.1,0.3c0,0.2,0.2,0.4,0.4,0.4c0.4,1,0.9,2.2,1.1,2.5c0,0.1-0.1,0.1-0.1,0.2c0,0.1,0,0.1,0.1,0.2
				c0,0,0.1,0.1,0.1,0.1c0,0.1,0,0.2,0,0.4c0,0.1,0.1,0.2,0.1,0.4c0,0,0,0,0,0l0.1,0.2c0,0,0,0.1,0,0.1c0,0.1,0.1,0.1,0.1,0.2
				c0,0.1,0,0.1,0.1,0.1c0,0,0.1,0.1,0.1,0.1c0.1,0,0.1,0,0.2,0c0.3,0.1,0.8,0.1,1.7,0c0.3,0,0.6-0.1,0.9-0.2
				c0.8-0.2,1.7-0.6,2.6-1.1c0,0,0.1-0.1,0.1-0.1c0,0,0-0.1,0-0.2c0-0.1,0-0.2-0.1-0.3c-0.1-0.3-0.2-0.7-0.6-0.8
				c-0.3-0.1-0.6-0.1-0.9-0.1c-0.3,0-0.6-0.1-0.7-0.1c-0.1-0.5-0.6-2.2-0.7-3c0.1-0.1,0.1-0.3,0-0.4c-0.1-0.2-0.4-0.3-0.6-0.2
				c0,0-0.2,0.1-0.5,0.2c-1.3-4.6-3-8.9-4.4-12c0.1-0.1,0.1-0.2,0.2-0.3c0.8-1.2,1-2.9,1.2-4.3c0.2-1.8-0.3-3.6-0.9-5.3
				c-0.6-1.8-1.4-3.5-2.2-5.2c-0.3-0.6-0.6-1.3-0.9-1.9c0.1,0,0.1,0,0.2,0c9-1.5,14.5-8.8,14.7-9.1c0.1-0.1,0.1-0.2,0.2-0.3
				c0.1,0,0.2,0.1,0.3,0.1c1.2,0.3,2.4-0.4,3.3-1.1c0.8-0.5,1.6-1.2,2.2-2C101.9,33.2,101.1,33.1,100.5,33.6z M83.9,77.3
				C83.9,77.3,83.9,77.3,83.9,77.3C83.9,77.3,84,77.3,83.9,77.3C84,77.3,83.9,77.3,83.9,77.3z M87.7,75.8
				C87.7,75.8,87.7,75.8,87.7,75.8c0.1,0,0.1,0,0.1,0c-0.2,0.1-0.4,0.2-0.6,0.2C87.5,75.9,87.7,75.8,87.7,75.8z"/>
			<path class="st4" d="M74.5,33.8c0,0,2.1-1.3,0.5-5.1c-1.6-3.8-6.5-4.5-6.3,0.4C68.8,34,73.1,34.6,74.5,33.8z"/>
			<path class="st4" d="M78.9,34.1c0,0-1.9-1.6,0.3-5.1c2.2-3.5,7.1-3.5,6.2,1.3C84.4,35.1,80.1,35.2,78.9,34.1z"/>
			<path class="st4" d="M75.6,40c0,0-0.6-1.4-0.9-0.9C74.4,39.6,75.7,40.6,75.6,40z"/>
			<path class="st4" d="M76.1,40c0,0,0.8-1.3,1-0.7C77.3,39.8,75.8,40.6,76.1,40z"/>
			<path class="st4" d="M73.7,41.1c0,0,3.6,0.7,5.7-1.9c0,0-0.7,3.1-3.3,2.9C74.3,41.9,73.7,41.1,73.7,41.1z"/>
		</g>
		<g class="st6">
			<path class="st4" d="M111.1,32.8c0,0,2.4-0.6,2-4.8c-0.5-4.1-4.9-6.2-6.2-1.5C105.6,31.4,109.5,33.2,111.1,32.8z"/>
			<path class="st4" d="M115.2,34.4c0,0-1.4-2.1,1.8-4.8c3.1-2.7,7.8-1.3,5.5,3.1C120.2,37.1,116.1,35.8,115.2,34.4z"/>
			<path class="st4" d="M110.3,39.1c0,0-0.2-1.5-0.6-1.1C109.3,38.4,110.3,39.8,110.3,39.1z"/>
			<path class="st4" d="M110.8,39.3c0,0,1.2-1,1.2-0.4C112,39.4,110.4,39.8,110.8,39.3z"/>
			<path class="st4" d="M108.2,39.6c0,0,3.3,1.7,6-0.2c0,0-1.6,2.7-4,1.8C108.5,40.6,108.2,39.6,108.2,39.6z"/>
			<path class="st8" d="M126,24c0.1,0,0.3,0.1,0.4,0.1c0.8,0.1,1.5-0.3,1.8-1c0.2-0.4,0.2-0.9,0-1.3c-0.2-0.4-0.5-0.7-0.9-0.9
				c-0.1,0-0.3-0.1-0.4-0.1c-0.8-0.1-1.5,0.3-1.8,1c-0.1,0.3-0.1,0.5-0.1,0.8l-2,1.4c-2.1-2-5.6-3.7-8.9-4.1
				c-0.8-0.1-1.6-0.1-2.3-0.1l-0.6-2.6c0.2-0.2,0.4-0.4,0.5-0.7c0.2-0.4,0.1-0.9,0-1.3c-0.2-0.4-0.5-0.7-0.9-0.9
				c-0.1,0-0.3-0.1-0.4-0.1c-0.8-0.1-1.5,0.3-1.8,1c-0.3,0.9,0.1,1.8,0.9,2.1c0.1,0,0.2,0.1,0.3,0.1c0.1,0.6,0.4,1.7,0.5,2.5
				c-0.3,0.1-0.6,0.2-0.9,0.4c0,0-4.9,2.9-6.2,9.4c-1,5.2,1.5,8.5,3.4,10.1c-10.7,1.4-16.3,10.9-16.5,11.3c0,0,0,0.1,0,0.1
				c-0.1,0-0.2,0-0.4,0c-1.2,0.2-2,1.3-2.7,2.2c-0.5,0.8-1,1.7-1.3,2.7c-0.4,1.4,0.4,1.2,0.8,0.6c1.4-2.6,1.9-2.1,2-2.3
				c-0.4,0.9-1.6,3.3-0.9,3.7c0.3,0.2,0.7-0.9,0.9-1.4c0.1-0.2,0.7-1.6,1-2c-0.1,0.4-0.6,2.1-0.6,2.4c0,0.4,0,1.5,0.6,1.6
				c0.5,0,0.5-1,0.5-1.4c0.1-1.5,0.7-2.2,0.7-2.6c-0.2,0.7-0.2,2.6,0,3.4c0.1,0.3,0.2,0.6,0.5,0.7c0.6,0.1,0.5-1.4,0.5-1.7
				c0-0.7,0-1.3,0.2-2c0.3-1.2,0.7-0.7,0.9,0c0.2,0.5,0.3,0.9,0.8,1.1c0.2,0.1,0.4,0,0.5-0.2c0.1-0.2,0.1-0.4,0-0.6
				c-0.1-0.2-0.1-0.4-0.2-0.7c-0.1-0.4-0.2-0.8-0.4-1.2c-0.1-0.3-0.2-0.5-0.4-0.8c-0.2-0.4-0.5-0.7-0.8-0.9c1-1.6,5.7-8.1,13.4-9.6
				c-1.3,1.8-3,3.2-4.7,4.7c-2.2,1.9-4.4,3.8-5.8,6.4c-1.4,2.8-1.1,5.9,0.8,8.3c-1.3,3.2-3,7.7-4.1,12.4c-0.3-0.1-0.5-0.2-0.5-0.2
				c-0.2-0.1-0.5,0-0.6,0.2c-0.1,0.2,0,0.3,0,0.4c-0.2,0.8-0.5,2.6-0.6,3c-0.1,0-0.4,0.1-0.7,0.1c-0.3,0-0.6,0.1-0.9,0.2
				c-0.4,0.1-0.5,0.7-0.6,1.1c0,0.1,0,0.1,0,0.2c0,0.1,0,0.1,0.1,0.1c0.9,0.5,1.8,0.9,2.6,1c0.3,0.1,0.6,0.1,0.9,0.2
				c0.9,0.1,1.3,0,1.7,0c0.1,0,0.1,0,0.2,0c0,0,0.1,0,0.1-0.1c0-0.1,0.1-0.2,0.1-0.3c0.1-0.2,0.2-0.5,0.2-0.6c0.1-0.2,0-0.3,0-0.4
				c0,0,0.1-0.1,0.1-0.1c0.1,0,0.1-0.1,0.1-0.2c0-0.1,0-0.2-0.1-0.2c0.1-0.3,0.6-1.5,1-2.6c0.2,0,0.4-0.2,0.4-0.4
				c0-0.1,0-0.2-0.1-0.3c-0.1-0.1-0.2-0.2-0.3-0.2c-0.3,0-0.6-0.1-0.9-0.2c1-4.3,2.5-8.4,3.7-11.5c1.6,1.1,3.6,1.9,5.7,2.1l0.1,0
				c1.5,0.2,2.9,0,4.3-0.4c0.4,3.2,0.7,7.4,0.6,11.6c-0.3,0-0.6,0-0.9-0.1c-0.1,0-0.2,0-0.3,0.1c-0.1,0.1-0.2,0.2-0.2,0.3
				c0,0.2,0.1,0.4,0.3,0.5c0.1,1.1,0.3,2.4,0.3,2.7c-0.1,0-0.1,0.1-0.1,0.2c0,0.1,0,0.1,0.1,0.2c0,0,0.1,0.1,0.1,0.1
				c0,0.1-0.1,0.2-0.1,0.4c0,0.1,0,0.4,0.1,0.7c0,0.1,0,0.3,0,0.3c0,0,0,0.1,0.1,0.1c0,0,0.1,0,0.1,0.1c0.3,0.2,0.7,0.4,1.6,0.5
				c0.3,0,0.6,0.1,0.9,0.1c0.8,0,1.8-0.1,2.8-0.3c0.1,0,0.1-0.1,0.1-0.1c0,0,0-0.1,0-0.2c0-0.4,0.1-1-0.3-1.2
				c-0.2-0.1-0.5-0.3-0.8-0.4c-0.2-0.1-0.6-0.2-0.6-0.3c0-0.5,0.1-2.3,0.2-3.1c0.1-0.1,0.2-0.3,0.2-0.4c0-0.2-0.3-0.4-0.5-0.4
				c0,0-0.2,0-0.6,0.1c0.1-4.7-0.3-9.3-0.7-12.6c0.1-0.1,0.2-0.2,0.3-0.2c1.1-0.9,1.8-2.4,2.4-3.7l0-0.1c0.7-1.6,0.8-3.5,0.7-5.3
				c-0.1-1.9-0.3-3.9-0.6-5.7c-0.2-1.5-0.4-2.9-0.3-4.2c6.4,4.3,8.5,11.7,8.5,11.8c0,0.1,0.1,0.2,0.2,0.3c-0.4,0.3-0.8,0.7-1,1.1
				c-0.1,0.3-0.3,0.5-0.4,0.8c-0.1,0.4-0.2,0.8-0.3,1.2c-0.1,0.2-0.1,0.5-0.2,0.7c-0.1,0.2-0.1,0.4,0,0.6c0.1,0.2,0.3,0.3,0.5,0.2
				c0.5-0.2,0.6-0.6,0.7-1.1c0.2-0.7,0.6-1.2,0.9,0c0.2,0.7,0.2,1.3,0.2,2c0,0.3-0.1,1.8,0.5,1.7c0.3-0.1,0.4-0.4,0.5-0.7
				c0.2-0.8,0.1-2.7-0.1-3.4c0.1,0.4,0.6,1.1,0.8,2.6c0,0.3,0,1.4,0.5,1.4c0.6-0.1,0.6-1.2,0.5-1.6c0-0.3-0.6-2.1-0.6-2.4
				c0.3,0.4,0.9,1.7,1,1.9c0.2,0.5,0.6,1.5,0.9,1.4c0.8-0.4-0.5-2.8-1-3.7c0.1,0.1,0.6-0.4,2,2.2c0.4,0.7,1.2,0.8,0.8-0.6
				c-0.3-0.9-0.8-1.9-1.4-2.6c-0.7-0.9-1.5-2-2.7-2.2c-0.1,0-0.2,0-0.3,0c0-0.1,0-0.3,0-0.4c-0.1-0.4-2.5-8.8-10-13.4
				c2.4,0.1,6.5-0.6,9.2-5.1c3.5-5.7,1.8-11.1,1.8-11.1c-0.1-0.4-0.3-0.8-0.6-1.2c0.6-0.5,1.4-1,1.8-1.3
				C125.8,23.9,125.9,23.9,126,24z M95.1,75.6C95.1,75.6,95.2,75.6,95.1,75.6C95.1,75.6,95.1,75.6,95.1,75.6
				C95.1,75.6,95.1,75.6,95.1,75.6z"/>
		</g>
	</g>
</g>
</svg>
